# xmcd
#
# Track frame offsets: 
#        150
#        16397
#        35895
#        52296
#        77170
#        90586
#        108295
#        128494
#        142069
#        155849
#
# Disc length: 2885 seconds
#
# Revision: 0
# Processed by: cddbd v1.5.2PL0 Copyright (c) Steve Scherf et al.
# Submitted via: ExactAudioCopy v0.99pb4
#
DISCID=890b430a
DTITLE=Joss Stone - The Soul Sessions
DYEAR=2003
DGENRE=Blues
TTITLE0=The Chokin' Kind
TTITLE1=Super Duper Love
TTITLE2=Fell In Love with a Boy
TTITLE3=Victim of a Foolish Heart
TTITLE4=Dirty Man
TTITLE5=Some Kind Of Wonderful
TTITLE6=I've Fallen In Love with You
TTITLE7=I Had A Dream
TTITLE8=All The King's Horses
TTITLE9=For The Love Of You
EXTD=
EXTT0=
EXTT1=
EXTT2=
EXTT3=
EXTT4=
EXTT5=
EXTT6=
EXTT7=
EXTT8=
EXTT9=
PLAYORDER=
